<?xml version="1.0" encoding="utf-8"?>
<!-- Generator: Adobe Illustrator 23.0.4, SVG Export Plug-In . SVG Version: 6.00 Build 0)  -->
<svg version="1.1" id="digitalcube" xmlns="http://www.w3.org/2000/svg" xmlns:xlink="http://www.w3.org/1999/xlink" x="0px"
	 y="0px" width="374.7px" height="78.5px" viewBox="0 0 374.7 78.5" style="enable-background:new 0 0 374.7 78.5;"
	 xml:space="preserve">
<g id="Wordmark">
	<path id="D" d="M104.8,47.9c0,11.3-8.5,19.5-20.4,19.5H68.6V28.4h16C96.3,28.4,104.8,36.6,104.8,47.9z M98.2,48
		c0-8-6-13.7-13.7-13.7h-9.3v27.2h9.6C92.4,61.5,98.2,55.9,98.2,48z"/>
	<path id="i" d="M116.2,29.3c0,2.2-1.6,3.9-3.7,3.9c-2.1,0-3.7-1.6-3.7-3.9c0-2.3,1.6-3.9,3.7-3.9C114.5,25.4,116.2,27,116.2,29.3z
		 M115.6,37.8v29.7h-6.4V37.8H115.6z"/>
	<path id="g" d="M150.8,37.8v26.8c0,8.5-6.1,13.9-15.4,13.9c-4.6,0-8.7-1.5-12.3-3.9l2.7-4.6c2.8,2.1,5.7,3.2,9.3,3.2
		c5.6,0,9.3-3.3,9.3-8.4V61c-2,3.2-5.4,5-9.8,5c-8,0-13.4-5.8-13.4-14.3c0-8.4,5.3-14.1,13.2-14.1c4.6-0.1,8,1.8,10,5v-4.8H150.8z
		 M144.4,51.8c0-5.4-3.5-9.1-8.5-9.1c-5.1,0-8.6,3.8-8.7,9.1c0.1,5.4,3.5,9.2,8.7,9.2C140.9,61,144.4,57.2,144.4,51.8z"/>
	<path id="i_1_" d="M164.4,29.3c0,2.2-1.6,3.9-3.7,3.9s-3.7-1.6-3.7-3.9c0-2.3,1.6-3.9,3.7-3.9S164.4,27,164.4,29.3z M163.8,37.8
		v29.7h-6.4V37.8H163.8z"/>
	<path id="t" d="M189,65.6c-2.3,1.4-4.8,2.2-7.3,2.2c-4.5,0-8.3-2.6-8.3-8.7V43.7h-4.2v-4.8h4.2v-8.1h6.4v8.1h8.8v4.8h-8.8v14.2
		c0,3.1,1.2,4,3.2,4c1.3,0,2.7-0.4,4.5-1.3L189,65.6z"/>
	<path id="a" d="M212.7,67.5v-3.6c-2.1,2.6-5.5,3.9-9.8,3.9c-6.4,0-10.4-4-10.4-9.2c0-5.4,4.1-8.9,11.2-8.9h9v-0.9
		c0-3.7-2.4-6-7.1-6c-2.8,0-5.8,1-8.8,3l-2.6-4.5c4.1-2.5,7.1-3.7,12.8-3.7c7.6,0,11.9,3.9,12,10.4l0.1,19.5H212.7z M212.7,57v-2.7
		h-8c-4.2,0-6.1,1.1-6.1,4c0,2.7,2.2,4.4,5.7,4.4C208.8,62.7,212.3,60.3,212.7,57z"/>
	<path id="l" d="M232.1,26v41.4h-6.4V26H232.1z"/>
	<path id="C" d="M258.5,34.1c-7.8,0-14,6-14,13.7s6.1,13.8,14,13.8c3.9,0,7.9-1.8,10.9-4.6l3.9,4.4c-4,3.9-9.6,6.4-15.1,6.4
		c-11.4,0-20.3-8.7-20.3-19.9c0-11.1,9-19.6,20.5-19.6c5.5,0,11.1,2.3,14.8,6l-3.9,4.8C266.6,36,262.5,34.1,258.5,34.1z"/>
	<path id="u" d="M304.4,37.8v29.7H298v-5.8c-2,4.1-5.7,6-10.6,6c-6.8,0-10.9-4.4-10.9-11.4V37.8h6.4v16.7c0,4.5,2.6,7.2,6.9,7.2
		c5.1-0.1,8.1-4.1,8.1-9.3V37.8H304.4z"/>
	<path id="b" d="M341.8,52.7c0,8.9-5.6,15-14.1,15c-4.7,0-8.3-1.9-10.5-5.4v5.1h-6.4V26h6.4v16.9c2.2-3.5,5.7-5.4,10.4-5.4
		C336,37.5,341.8,43.7,341.8,52.7z M335.3,52.5c0-5.5-3.7-9.6-9-9.6s-9,4-9,9.6c0,5.7,3.7,9.7,9,9.7S335.3,58.2,335.3,52.5z"/>
	<path id="e" d="M374.6,55.1h-22.4c1,4.6,4.5,7.4,9.2,7.4c3.2,0,6.2-1.2,8.4-3.5l3.4,3.6c-2.9,3.2-7.1,5-12.3,5
		c-9.2,0-15.2-6.1-15.2-15c0-9,6.2-15.1,15-15.1C371.1,37.5,375.4,44.3,374.6,55.1z M369,50.4c-0.2-4.8-3.4-7.7-8.3-7.7
		c-4.7,0-8,3-8.7,7.7H369z"/>
</g>
<g id="logomark_1_">
	<polygon points="16.8,16.8 0,16.8 0,33.6 0,50.5 0,50.5 0,67.3 50.5,67.3 50.5,50.5 50.5,50.5 50.5,33.6 33.6,33.6 33.6,50.5 
		16.8,50.5 16.8,33.6 33.6,33.6 33.6,16.8 	"/>
	<rect x="33.6" width="16.8" height="16.8"/>
</g>
</svg>
